<?xml version="1.0" encoding="utf-8"?>
<!-- Generator: Adobe Illustrator 24.1.2, SVG Export Plug-In . SVG Version: 6.00 Build 0)  -->
<svg version="1.1" id="_1" xmlns="http://www.w3.org/2000/svg" xmlns:xlink="http://www.w3.org/1999/xlink" x="0px" y="0px"
	 viewBox="0 0 2126 2126" style="enable-background:new 0 0 2126 2126;" xml:space="preserve">
<style type="text/css">
	.st0{fill:#F1FAFD;}
	.st1{fill:#2b3c6b;}
	.st2{fill:#FFBDBA;}
</style>
<g>
	<rect x="0" y="0" class="st0" width="2126" height="2126"/>
	<g>
		<path class="st1" d="M357.1,1172.1c48.6,42.6,91.2,89.3,130.4,142.8c44,60,82.5,127,117.7,204.7l4.6-2.1
			c-35.3-78-74-145.2-118.2-205.6c-39.4-53.8-82.3-100.7-131.1-143.6c-90.7-79.6-188.6-132.4-283.3-183.5
			C51.6,971.1,25.8,957.2,0,942.7v5.7c25,14,50,27.5,74.7,40.9C169.2,1040.2,266.9,1092.9,357.1,1172.1z"/>
		<path class="st2" d="M0,2120v6l2.3-1C1.5,2123.3,0.8,2121.6,0,2120z"/>
		<path class="st1" d="M78.2,2049C53.9,1995.5,28.1,1947,0,1902.3v9.4c26.4,42.6,50.7,88.7,73.7,139.3L78.2,2049z"/>
		<path class="st1" d="M149.6,1975.2l4.6-2.1c-35.3-78-74-145.2-118.2-205.6c-11.7-15.9-23.6-31.2-36-46v7.8
			c10.9,13.3,21.5,27,31.9,41.1C75.9,1830.5,114.4,1897.5,149.6,1975.2z"/>
		<path class="st1" d="M107.9,1694.6c44,60,82.5,127,117.7,204.7l4.6-2.1c-35.3-78-74-145.2-118.2-205.6
			C77.8,1645,41,1603.5,0,1565.4v6.8C39.4,1609.3,74.9,1649.5,107.9,1694.6z"/>
		<path class="st1" d="M183.8,1618.6c44,60,82.5,127,117.7,204.7l4.6-2.1c-35.3-78-74-145.2-118.2-205.6
			c-39.4-53.8-82.3-100.7-131.1-143.6c-18.6-16.3-37.6-31.6-56.7-45.9v6.3c18,13.6,35.9,28,53.4,43.4
			C102,1518.5,144.6,1565.2,183.8,1618.6z"/>
		<path class="st1" d="M259.7,1542.7c44,60,82.5,127,117.7,204.7l4.6-2.1c-35.3-78-74-145.2-118.2-205.6
			c-39.4-53.8-82.3-100.7-131.1-143.6c-43-37.7-87.5-69.4-132.6-97.8v5.9c44,27.8,87.5,58.8,129.3,95.6
			C177.9,1442.5,220.6,1489.3,259.7,1542.7z"/>
		<path class="st1" d="M335.6,1466.8c44,60,82.5,127,117.7,204.7l4.6-2.1c-35.3-78-74-145.2-118.2-205.6
			c-39.4-53.8-82.3-100.7-131.1-143.6c-67-58.8-137.9-103-208.6-142.6v5.7c69.6,39.2,139.4,82.9,205.3,140.7
			C253.8,1366.6,296.5,1413.3,335.6,1466.8z"/>
		<path class="st1" d="M411.6,1390.9c44,60,82.5,127,117.7,204.7l4.6-2.1c-35.3-78-74-145.2-118.2-205.6
			c-39.4-53.8-82.3-100.7-131.1-143.6c-90.7-79.6-188.6-132.4-283.3-183.5c-0.4-0.2-0.8-0.4-1.2-0.6v5.7
			c94.1,50.8,191.3,103.3,281.2,182.2C329.8,1290.7,372.4,1337.4,411.6,1390.9z"/>
		<path class="st1" d="M433.1,1096.2c48.6,42.6,91.2,89.3,130.4,142.8c44,60,82.5,127,117.7,204.7l4.6-2.1
			c-35.3-78-74-145.2-118.2-205.6c-39.4-53.8-82.3-100.7-131.1-143.6C345.7,1012.9,247.7,960,153,908.9
			c-50.6-27.3-102.2-55.1-153-87.3v5.9c50.1,31.5,100.8,58.9,150.7,85.8C245.1,964.3,342.8,1017,433.1,1096.2z"/>
		<path class="st1" d="M509,1020.3c48.6,42.6,91.2,89.3,130.4,142.8c44,60,82.5,127,117.7,204.7l4.6-2.1
			c-35.3-78-74-145.2-118.2-205.6c-39.4-53.8-82.3-100.7-131.1-143.6C421.6,936.9,323.7,884.1,229,833C152.9,792,74.7,749.8,0,693.5
			v6.3c74.1,55.3,151.4,97,226.6,137.6C321,888.4,418.7,941.1,509,1020.3z"/>
		<path class="st1" d="M302.5,761.5c94.4,51,192.1,103.6,282.4,182.9c48.6,42.6,91.2,89.3,130.4,142.8c44,60,82.5,127,117.7,204.7
			l4.6-2.1c-35.3-78-74-145.2-118.2-205.6c-39.4-53.8-82.3-100.7-131.1-143.6C497.5,861,399.6,808.2,304.9,757.1
			c-94.4-51-192.1-103.6-282.4-182.9c-7.6-6.7-15.2-13.5-22.5-20.5v6.8c6.3,5.9,12.7,11.7,19.2,17.4
			C109.9,657.6,207.8,710.4,302.5,761.5z"/>
		<path class="st1" d="M95.1,502c90.7,79.6,188.6,132.4,283.3,183.5c94.4,51,192.1,103.6,282.4,182.9
			c48.6,42.6,91.2,89.3,130.4,142.8c44,60,82.5,127,117.7,204.7l4.6-2.1c-35.3-78-74-145.2-118.2-205.6
			c-39.4-53.8-82.3-100.7-131.1-143.6c-90.7-79.6-188.6-132.4-283.3-183.5c-94.4-51-192.1-103.6-282.4-182.9
			C62.7,467,30.3,433.4,0,396.6v7.8C29.3,439.6,60.8,471.9,95.1,502z"/>
		<path class="st1" d="M171.1,426.1c90.7,79.6,188.6,132.4,283.3,183.5c94.4,51,192.1,103.6,282.4,182.9
			c48.6,42.6,91.2,89.3,130.4,142.8c44,60,82.5,127,117.7,204.7l4.6-2.1c-35.3-78-74-145.2-118.2-205.6
			c-39.4-53.8-82.3-100.7-131.1-143.6c-90.7-79.6-188.6-132.4-283.3-183.5c-94.4-51-192.1-103.6-282.4-182.9
			C125.8,379.7,83.2,333,44,279.6c-15.3-20.9-29.9-42.6-44-65.3v9.4c12.8,20.4,26.1,40,40,58.9C79.3,336.3,122.2,383.2,171.1,426.1z
			"/>
		<path class="st1" d="M1550.5,251.9c44,60,82.5,127,117.7,204.7l4.6-2.1c-35.3-78-74-145.2-118.2-205.6
			c-39.4-53.8-82.3-100.7-131.1-143.6c-46.9-41.1-95.6-75.1-144.9-105.4h-9.6c51.4,31.2,102.4,66.3,151.2,109.1
			C1468.7,151.8,1511.3,198.5,1550.5,251.9z"/>
		<path class="st1" d="M247,350.2c90.7,79.6,188.6,132.4,283.3,183.5c94.4,51,192.1,103.6,282.4,182.9
			c48.6,42.6,91.2,89.3,130.4,142.8c44,60,82.5,127,117.7,204.7l4.6-2.1c-35.3-78-74-145.2-118.2-205.6
			c-39.4-53.8-82.3-100.7-131.1-143.6c-90.7-79.6-188.6-132.4-283.3-183.5c-94.4-51-192.1-103.6-282.4-182.9
			c-48.6-42.6-91.2-89.3-130.4-142.8C76.2,143.9,37.8,77.2,2.7,0H0l0,0v6c34.7,75.9,72.7,141.5,115.9,200.6
			C155.3,260.3,198.2,307.3,247,350.2z"/>
		<path class="st1" d="M322.9,274.3c90.7,79.6,188.6,132.4,283.3,183.5c94.4,51,192.1,103.6,282.4,182.9
			c48.6,42.6,91.2,89.3,130.4,142.8c44,60,82.5,127,117.7,204.7l4.6-2.1c-35.3-78-74-145.2-118.2-205.6
			c-39.4-53.8-82.3-100.7-131.1-143.6c-90.7-79.6-188.6-132.4-283.3-183.5c-94.4-51-192.1-103.6-282.4-182.9
			c-48.6-42.6-91.2-89.3-130.4-142.8C167.1,88.5,140.7,46.2,116,0h-5.7c25.1,47.4,52.1,90.6,81.5,130.7
			C231.2,184.4,274.1,231.4,322.9,274.3z"/>
		<path class="st1" d="M398.9,198.3c90.7,79.6,188.6,132.4,283.3,183.5c94.4,51,192.1,103.6,282.4,182.9
			c48.6,42.6,91.2,89.3,130.4,142.8c44,60,82.5,127,117.7,204.7l4.6-2.1c-35.3-78-74-145.2-118.2-205.6
			c-39.4-53.8-82.3-100.7-131.1-143.6c-90.7-79.6-188.6-132.4-283.3-183.5c-94.4-51-192.1-103.6-282.4-182.9
			c-48.6-42.6-91.2-89.3-130.4-142.8c-12.2-16.7-24-33.9-35.5-51.8h-5.9c12,18.9,24.4,37.1,37.4,54.7
			C307.1,108.5,350,155.5,398.9,198.3z"/>
		<path class="st1" d="M474.8,122.4c90.7,79.6,188.6,132.4,283.3,183.5c94.4,51,192.1,103.6,282.4,182.9
			c48.6,42.6,91.2,89.3,130.4,142.8c44,60,82.5,127,117.7,204.7l4.6-2.1c-35.3-78-74-145.2-118.2-205.6
			c-39.4-53.8-82.3-100.7-131.1-143.6c-90.7-79.6-188.6-132.4-283.3-183.5c-94.4-51-192.1-103.6-282.4-182.9
			C437,82.6,400.1,43.6,366,0h-6.3C394.6,45,432.5,85.3,474.8,122.4z"/>
		<path class="st1" d="M550.7,46.5C641.4,126.1,739.3,178.9,834,230c94.4,51,192.1,103.6,282.4,182.9
			c48.6,42.6,91.2,89.3,130.4,142.8c44,60,82.5,127,117.7,204.7l4.6-2.1c-35.3-78-74-145.2-118.2-205.6
			c-39.4-53.8-82.3-100.7-131.1-143.6c-90.7-79.6-188.6-132.4-283.3-183.5c-94.4-51-192.1-103.6-282.4-182.9
			c-15.7-13.8-30.8-28-45.3-42.7h-7C517.4,16.1,533.7,31.5,550.7,46.5z"/>
		<path class="st1" d="M1192.3,336.9c48.6,42.6,91.2,89.3,130.4,142.8c44,60,82.5,127,117.7,204.7l4.6-2.1
			c-35.3-78-74-145.2-118.2-205.6c-39.4-53.8-82.3-100.7-131.1-143.6c-90.7-79.6-188.6-132.4-283.3-183.5
			C831.7,106.2,748.8,61.4,670.1,0H662c80.5,63.7,165.4,109.5,248,154.1C1004.4,205,1102.1,257.7,1192.3,336.9z"/>
		<path class="st1" d="M1268.3,261c48.6,42.6,91.2,89.3,130.4,142.8c44,60,82.5,127,117.7,204.7l4.6-2.1
			c-35.3-78-74-145.2-118.2-205.6c-39.4-53.8-82.3-100.7-131.1-143.6c-90.7-79.6-188.6-132.4-283.3-183.5
			C944.9,50.3,900.8,26.5,857.1,0h-9.6c46.1,28.3,92.6,53.4,138.4,78.1C1080.3,129.1,1178,181.8,1268.3,261z"/>
		<path class="st1" d="M1344.2,185.1c48.6,42.6,91.2,89.3,130.4,142.8c44,60,82.5,127,117.7,204.7l4.6-2.1
			c-35.3-78-74-145.2-118.2-205.6c-39.4-53.8-82.3-100.7-131.1-143.6C1258.1,102.9,1161.7,50.4,1068.3,0h-10.5
			c1.4,0.7,2.7,1.5,4.1,2.2C1156.3,53.2,1253.9,105.8,1344.2,185.1z"/>
		<path class="st1" d="M1626.4,176c44,60,82.5,127,117.7,204.7l4.6-2.1c-35.3-78-74-145.2-118.2-205.6
			c-39.4-53.8-82.3-100.7-131.1-143.6c-11.7-10.2-23.5-20-35.4-29.5h-8.1c13.5,10.6,26.9,21.6,40.2,33.2
			C1544.6,75.8,1587.3,122.5,1626.4,176z"/>
		<path class="st1" d="M1820,304.7l4.6-2.1c-35.3-78-74-145.2-118.2-205.6c-25.6-35-52.8-67.1-82.1-97.1h-7
			c30.4,30.8,58.5,63.9,85,100.1C1746.3,160.1,1784.8,227.1,1820,304.7z"/>
		<path class="st1" d="M1895.9,228.8l4.6-2.1c-35.3-78-74-145.2-118.2-205.6c-5.3-7.2-10.6-14.2-16-21.2h-6.3
			c6.2,7.9,12.3,15.9,18.3,24.1C1822.2,84.2,1860.7,151.1,1895.9,228.8z"/>
		<path class="st1" d="M1976.4,150.8c-25-55.2-51.7-105-80.8-150.8h-5.9c29.7,46.3,56.8,96.8,82.2,152.9L1976.4,150.8z"/>
		<path class="st1" d="M2052.3,74.9c-11.8-26.1-24-51-36.7-74.9h-5.7c13.1,24.5,25.6,50.1,37.8,77L2052.3,74.9z"/>
		<path class="st2" d="M2126,0h-2.7c0.2,0.3,0.3,0.7,0.5,1L2126,0z"/>
		<path class="st1" d="M857.7,1865c-48.6-42.6-91.2-89.3-130.4-142.8c-44-60-82.5-127-117.7-204.7l-4.6,2.1
			c35.3,78,74,145.2,118.2,205.6c39.4,53.8,82.3,100.7,131.1,143.6c90.7,79.6,188.6,132.4,283.3,183.5
			c43.4,23.4,87.5,47.2,131.2,73.7h9.6c-46.1-28.3-92.6-53.4-138.4-78.1C1045.7,1996.9,948,1944.2,857.7,1865z"/>
		<path class="st2" d="M0,2126h2.7c-0.2-0.3-0.3-0.7-0.5-1L0,2126z"/>
		<path class="st1" d="M73.7,2051.1c11.8,26.1,24,51,36.7,74.9h5.7c-13.1-24.5-25.6-50.1-37.8-77L73.7,2051.1z"/>
		<path class="st1" d="M149.6,1975.2c25,55.2,51.7,105,80.8,150.8h5.9c-29.7-46.3-56.8-96.8-82.2-152.9L149.6,1975.2z"/>
		<path class="st1" d="M230.1,1897.2l-4.6,2.1c35.3,78,74,145.2,118.2,205.6c5.3,7.2,10.6,14.2,16,21.2h6.3
			c-6.2-7.9-12.3-15.9-18.3-24.1C303.7,2041.8,265.3,1974.9,230.1,1897.2z"/>
		<path class="st1" d="M306,1821.2l-4.6,2.1c35.3,78,74,145.2,118.2,205.6c25.6,35,52.8,67.1,82.1,97.1h7
			c-30.4-30.8-58.5-63.9-85-100.1C379.7,1965.9,341.2,1898.9,306,1821.2z"/>
		<path class="st1" d="M499.6,1950c-44-60-82.5-127-117.7-204.7l-4.6,2.1c35.3,78,74,145.2,118.2,205.6
			c39.4,53.8,82.3,100.7,131.1,143.6c11.7,10.2,23.5,20,35.4,29.5h8.1c-13.5-10.6-26.9-21.6-40.2-33.2
			C581.4,2050.1,538.7,2003.4,499.6,1950z"/>
		<path class="st1" d="M575.5,1874.1c-44-60-82.5-127-117.7-204.7l-4.6,2.1c35.3,78,74,145.2,118.2,205.6
			c39.4,53.8,82.3,100.7,131.1,143.6c46.9,41.1,95.6,75.1,144.9,105.4h9.6c-51.4-31.2-102.4-66.3-151.2-109.1
			C657.3,1974.2,614.7,1927.5,575.5,1874.1z"/>
		<path class="st1" d="M781.8,1940.9c-48.6-42.6-91.2-89.3-130.4-142.8c-44-60-82.5-127-117.7-204.7l-4.6,2.1
			c35.3,78,74,145.2,118.2,205.6c39.4,53.8,82.3,100.7,131.1,143.6c89.4,78.5,185.8,130.9,279.2,181.3h10.5
			c-1.4-0.7-2.7-1.5-4.1-2.2C969.7,2072.8,872.1,2020.1,781.8,1940.9z"/>
		<path class="st1" d="M933.7,1789.1c-48.6-42.6-91.2-89.3-130.4-142.8c-44-60-82.5-127-117.7-204.7l-4.6,2.1
			c35.3,78,74,145.2,118.2,205.6c39.4,53.8,82.3,100.7,131.1,143.6c90.7,79.6,188.6,132.4,283.3,183.5
			c80.6,43.5,163.5,88.2,242.2,149.7h8.1c-80.5-63.7-165.4-109.5-247.9-154.1C1121.6,1921,1023.9,1868.3,933.7,1789.1z"/>
		<path class="st1" d="M1575.3,2079.5c-90.7-79.6-188.6-132.4-283.3-183.5c-94.4-51-192.1-103.6-282.4-182.9
			c-48.6-42.6-91.2-89.3-130.4-142.8c-44-60-82.5-127-117.7-204.7l-4.6,2.1c35.3,78,74,145.2,118.2,205.6
			c39.4,53.8,82.3,100.7,131.1,143.6c90.7,79.6,188.6,132.4,283.3,183.5c94.4,51,192.1,103.6,282.4,182.9
			c15.7,13.8,30.8,28,45.3,42.7h7C1608.6,2109.9,1592.3,2094.5,1575.3,2079.5z"/>
		<path class="st1" d="M1651.2,2003.6c-90.7-79.6-188.6-132.4-283.3-183.5c-94.4-51-192.1-103.6-282.4-182.9
			c-48.6-42.6-91.2-89.3-130.4-142.8c-44-60-82.5-127-117.7-204.7l-4.6,2.1c35.3,78,74,145.2,118.2,205.6
			c39.4,53.8,82.3,100.7,131.1,143.6c90.7,79.6,188.6,132.4,283.3,183.5c94.4,51,192.1,103.6,282.4,182.9
			c41.1,36.1,78,75.1,112.1,118.6h6.3C1731.4,2080.9,1693.5,2040.7,1651.2,2003.6z"/>
		<path class="st1" d="M1727.1,1927.7c-90.7-79.6-188.6-132.4-283.3-183.5c-94.4-51-192.1-103.6-282.4-182.9
			c-48.6-42.6-91.2-89.3-130.4-142.8c-44-60-82.5-127-117.7-204.7l-4.6,2.1c35.3,78,74,145.2,118.2,205.6
			c39.4,53.8,82.3,100.7,131.1,143.6c90.7,79.6,188.6,132.4,283.3,183.5c94.4,51,192.1,103.6,282.4,182.9
			c48.6,42.6,91.2,89.3,130.4,142.8c12.2,16.7,24,33.9,35.5,51.8h5.9c-12-18.9-24.4-37.1-37.4-54.7
			C1818.9,2017.5,1776,1970.5,1727.1,1927.7z"/>
		<path class="st1" d="M1803.1,1851.7c-90.7-79.6-188.6-132.4-283.3-183.5c-94.4-51-192.1-103.6-282.4-182.9
			c-48.6-42.6-91.2-89.3-130.4-142.8c-44-60-82.5-127-117.7-204.7l-4.6,2.1c35.3,78,74,145.2,118.2,205.6
			c39.4,53.8,82.3,100.7,131.1,143.6c90.7,79.6,188.6,132.4,283.3,183.5c94.4,51,192.1,103.6,282.4,182.9
			c48.6,42.6,91.2,89.3,130.4,142.8c28.8,39.3,55.2,81.5,79.8,127.7h5.7c-25.1-47.4-52.1-90.6-81.5-130.7
			C1894.8,1941.6,1851.9,1894.6,1803.1,1851.7z"/>
		<path class="st1" d="M1790.3,659.2c-44-60-82.5-127-117.7-204.7l-4.6,2.1c35.3,78,74,145.2,118.2,205.6
			c39.4,53.8,82.3,100.7,131.1,143.6c67,58.8,137.9,103,208.6,142.6v-5.7c-69.6-39.2-139.4-82.9-205.3-140.7
			C1872.1,759.4,1829.5,712.7,1790.3,659.2z"/>
		<path class="st1" d="M1879,1775.8c-90.7-79.6-188.6-132.4-283.3-183.5c-94.4-51-192.1-103.6-282.4-182.9
			c-48.6-42.6-91.2-89.3-130.4-142.8c-44-60-82.5-127-117.7-204.7l-4.6,2.1c35.3,78,74,145.2,118.2,205.6
			c39.4,53.8,82.3,100.7,131.1,143.6c90.7,79.6,188.6,132.4,283.3,183.5c94.4,51,192.1,103.6,282.4,182.9
			c48.6,42.6,91.2,89.3,130.4,142.8c43.8,59.8,82.1,126.4,117.2,203.6h2.7l0,0v-6c-34.7-75.9-72.7-141.5-115.9-200.6
			C1970.7,1865.6,1927.8,1818.7,1879,1775.8z"/>
		<path class="st1" d="M1954.9,1699.9c-90.7-79.6-188.6-132.4-283.3-183.5c-94.4-51-192.1-103.6-282.4-182.9
			c-48.6-42.6-91.2-89.3-130.4-142.8c-44-60-82.5-127-117.7-204.7l-4.6,2.1c35.3,78,74,145.2,118.2,205.6
			c39.4,53.8,82.3,100.7,131.1,143.6c90.7,79.6,188.6,132.4,283.3,183.5c94.4,51,192.1,103.6,282.4,182.9
			c48.6,42.6,91.2,89.3,130.4,142.8c15.3,20.9,29.9,42.6,44,65.3v-9.4c-12.8-20.4-26.1-40-40-58.9
			C2046.6,1789.7,2003.8,1742.7,1954.9,1699.9z"/>
		<path class="st1" d="M2030.8,1623.9c-90.7-79.6-188.6-132.4-283.3-183.5c-94.4-51-192.1-103.6-282.4-182.9
			c-48.6-42.6-91.2-89.3-130.4-142.8c-44-60-82.5-127-117.7-204.7l-4.6,2.1c35.3,78,74,145.2,118.2,205.6
			c39.4,53.8,82.3,100.7,131.1,143.6c90.7,79.6,188.6,132.4,283.3,183.5c94.4,51,192.1,103.6,282.4,182.9
			c35.7,31.3,68.2,64.9,98.4,101.7v-7.8C2096.7,1686.3,2065.2,1654.1,2030.8,1623.9z"/>
		<path class="st1" d="M1823.5,1364.5c-94.4-51-192.1-103.6-282.4-182.9c-48.6-42.6-91.2-89.3-130.4-142.8
			c-44-60-82.5-127-117.7-204.7l-4.6,2.1c35.3,78,74,145.2,118.2,205.6c39.4,53.8,82.3,100.7,131.1,143.6
			c90.7,79.6,188.6,132.4,283.3,183.5c94.5,51,192.1,103.6,282.4,182.9c7.6,6.7,15.2,13.5,22.5,20.5v-6.8
			c-6.3-5.9-12.7-11.7-19.2-17.4C2016.1,1468.4,1918.2,1415.6,1823.5,1364.5z"/>
		<path class="st1" d="M1617,1105.7c-48.6-42.6-91.2-89.3-130.4-142.8c-44-60-82.5-127-117.7-204.7l-4.6,2.1
			c35.3,78,74,145.2,118.2,205.6c39.4,53.8,82.3,100.7,131.1,143.6c90.7,79.6,188.6,132.4,283.3,183.5c76.1,41,154.3,83.2,229,139.5
			v-6.3c-74.1-55.3-151.4-97-226.6-137.6C1804.9,1237.6,1707.3,1184.9,1617,1105.7z"/>
		<path class="st1" d="M1692.9,1029.8c-48.6-42.6-91.2-89.3-130.4-142.8c-44-60-82.5-127-117.7-204.7l-4.6,2.1
			c35.3,78,74,145.2,118.2,205.6c39.4,53.8,82.3,100.7,131.1,143.6c90.7,79.6,188.6,132.4,283.3,183.5
			c50.6,27.3,102.2,55.1,153,87.3v-5.9c-50.1-31.5-100.8-58.9-150.7-85.8C1880.9,1161.7,1783.2,1109,1692.9,1029.8z"/>
		<path class="st1" d="M1768.9,953.9c-48.6-42.6-91.2-89.3-130.4-142.8c-44-60-82.5-127-117.7-204.7l-4.6,2.1
			c35.3,78,74,145.2,118.2,205.6c39.4,53.8,82.3,100.7,131.1,143.6c90.7,79.6,188.6,132.4,283.3,183.5
			c25.5,13.8,51.3,27.7,77.1,42.2v-5.7c-25-14-50-27.5-74.7-40.9C1956.8,1085.8,1859.1,1033.1,1768.9,953.9z"/>
		<path class="st1" d="M1714.4,735.1c-44-60-82.5-127-117.7-204.7l-4.6,2.1c35.3,78,74,145.2,118.2,205.6
			c39.4,53.8,82.3,100.7,131.1,143.6c90.7,79.6,188.6,132.4,283.3,183.5c0.4,0.2,0.8,0.4,1.2,0.6v-5.7
			c-94.1-50.8-191.3-103.3-281.2-182.2C1796.2,835.3,1753.6,788.6,1714.4,735.1z"/>
		<path class="st1" d="M1866.3,583.3c-44-60-82.5-127-117.7-204.7l-4.6,2.1c35.3,78,74,145.2,118.2,205.6
			c39.4,53.8,82.3,100.7,131.1,143.6c43,37.7,87.5,69.4,132.6,97.8v-5.9c-44-27.8-87.5-58.8-129.3-95.6
			C1948.1,683.4,1905.4,636.7,1866.3,583.3z"/>
		<path class="st1" d="M1942.2,507.3c-44-60-82.5-127-117.7-204.7l-4.6,2.1c35.3,78,74,145.2,118.2,205.6
			c39.4,53.8,82.3,100.7,131.1,143.6c18.6,16.3,37.6,31.6,56.7,45.9v-6.3c-18-13.6-35.9-28-53.4-43.4
			C2024,607.5,1981.4,560.8,1942.2,507.3z"/>
		<path class="st1" d="M2018.1,431.4c-44-60-82.5-127-117.7-204.7l-4.6,2.1c35.3,78,74,145.2,118.2,205.6
			c34.1,46.6,70.9,88.1,111.9,126.2v-6.8C2086.6,516.7,2051.1,476.5,2018.1,431.4z"/>
		<path class="st1" d="M1976.4,150.8l-4.6,2.1c35.3,78,74,145.2,118.2,205.6c11.7,15.9,23.6,31.2,36,46v-7.8
			c-10.9-13.3-21.5-27-31.9-41.1C2050.1,295.5,2011.6,228.5,1976.4,150.8z"/>
		<path class="st1" d="M2047.8,77c24.3,53.6,50.1,102.1,78.2,146.7v-9.4c-26.4-42.6-50.7-88.7-73.7-139.3L2047.8,77z"/>
		<path class="st2" d="M2126,6V0l-2.3,1C2124.5,2.7,2125.2,4.4,2126,6z"/>
	</g>
</g>
</svg>
