<svg id="icon-wave-news" xmlns="http://www.w3.org/2000/svg" viewBox="0 0 264 11">
    <path fill="none" stroke="#2956cf" stroke-linecap="round" stroke-linejoin="round" stroke-width="4.054" d="M262 8c-5.417 0-5.417-5-10.834-5-5.418 0-5.418 5-10.835 5-5.416 0-5.416-5-10.833-5-5.416 0-5.416 5-10.832 5-5.417 0-5.417-5-10.833-5S202.417 8 197 8s-5.417-5-10.834-5-5.417 5-10.834 5c-5.416 0-5.416-5-10.833-5-5.416 0-5.416 5-10.833 5-5.416 0-5.416-5-10.833-5-5.416 0-5.416 5-10.832 5-5.417 0-5.417-5-10.834-5-5.418 0-5.418 5-10.835 5-5.416 0-5.416-5-10.833-5-5.416 0-5.416 5-10.833 5-5.416 0-5.416-5-10.832-5S72.418 8 67 8s-5.417-5-10.834-5-5.417 5-10.834 5S39.916 3 34.5 3c-5.417 0-5.417 5-10.833 5S18.25 3 12.834 3 7.418 8 2 8"/>
</svg>
